<?xml version="1.0" encoding="UTF-8" standalone="no"?>
<svg
   width="173"
   height="33"
   viewBox="0 0 173 33"
   fill="none"
   version="1.1"
   id="svg28"
   sodipodi:docname="Vector.svg"
   inkscape:version="1.1.2 (b8e25be833, 2022-02-05)"
   xmlns:inkscape="http://www.inkscape.org/namespaces/inkscape"
   xmlns:sodipodi="http://sodipodi.sourceforge.net/DTD/sodipodi-0.dtd"
   xmlns="http://www.w3.org/2000/svg"
   xmlns:svg="http://www.w3.org/2000/svg">
  <defs
     id="defs32" />
  <sodipodi:namedview
     id="namedview30"
     pagecolor="#ffffff"
     bordercolor="#666666"
     borderopacity="1.0"
     inkscape:pageshadow="2"
     inkscape:pageopacity="0.0"
     inkscape:pagecheckerboard="0"
     showgrid="false"
     inkscape:snap-page="true"
     inkscape:snap-grids="true"
     inkscape:snap-text-baseline="true"
     inkscape:zoom="4.3208093"
     inkscape:cx="85.169231"
     inkscape:cy="65.728428"
     inkscape:window-width="1920"
     inkscape:window-height="1166"
     inkscape:window-x="-11"
     inkscape:window-y="-11"
     inkscape:window-maximized="1"
     inkscape:current-layer="svg28" />
  <path
     d="m 4.19039,32.6066 2.4018,-6.8784 H 16.8126 l 2.3891,6.8784 h 4.1904 L 13.9765,6.61607 H 9.41559 L 0,32.6066 Z M 7.74199,22.4287 11.6002,11.337 h 0.2044 l 3.8582,11.0917 z"
     fill="white"
     id="path2"
     style="fill:#ffffff;fill-opacity:1" />
  <path
     d="m 26.8638,32.6066 h 3.8199 V 20.7027 c 0,-2.5508 1.9802,-4.3909 4.6886,-4.3909 0.7921,0 1.6864,0.1396 1.993,0.2284 v -3.6295 c -0.3832,-0.0508 -1.137,-0.0889 -1.6225,-0.0889 -2.2996,0 -4.267,1.2945 -4.9824,3.3884 H 30.556 v -3.0965 h -3.6922 z"
     fill="white"
     id="path4"
     style="fill:#ffffff;fill-opacity:1" />
  <path
     d="m 48.2342,33 c 5.5318,0 9.1473,-4.0229 9.1473,-10.051 0,-6.0662 -3.6155,-10.0891 -9.1473,-10.0891 -5.5319,0 -9.1474,4.0229 -9.1474,10.0891 0,6.0281 3.6155,10.051 9.1474,10.051 z m 0.0127,-3.1854 c -3.6155,0 -5.3018,-3.1346 -5.3018,-6.8783 0,-3.7311 1.6863,-6.9037 5.3018,-6.9037 3.59,0 5.2763,3.1726 5.2763,6.9037 0,3.7437 -1.6863,6.8783 -5.2763,6.8783 z"
     fill="white"
     id="path6"
     style="fill:#ffffff;fill-opacity:1" />
  <path
     d="m 74.0759,24.5226 c 0.0128,3.3123 -2.4656,4.8859 -4.6119,4.8859 -2.3635,0 -3.9988,-1.7005 -3.9988,-4.3529 V 13.1137 h -3.8199 v 12.3988 c 0,4.8351 2.6701,7.3479 6.4389,7.3479 2.9511,0 4.9569,-1.5483 5.864,-3.6295 h 0.2044 v 3.3757 h 3.756 V 13.1137 h -3.8327 z"
     fill="white"
     id="path8"
     style="fill:#ffffff;fill-opacity:1" />
  <path
     d="m 86.8611,21.0327 c 0,-3.1092 1.9163,-4.8859 4.5736,-4.8859 2.5935,0 4.1649,1.6878 4.1649,4.5179 v 11.9419 h 3.8199 V 20.2078 c 0,-4.8225 -2.6701,-7.3479 -6.6817,-7.3479 -2.9511,0 -4.8802,1.3579 -5.7873,3.4265 h -0.2427 v -3.1727 h -3.6666 v 19.4929 h 3.8199 z"
     fill="white"
     id="path10"
     style="fill:#ffffff;fill-opacity:1" />
  <path
     d="m 111.888,32.9873 c 3.578,0 4.983,-2.1701 5.673,-3.4138 h 0.319 v 3.0331 h 3.731 V 6.61607 h -3.82 v 9.65763 h -0.23 c -0.69,-1.2056 -1.993,-3.4138 -5.647,-3.4138 -4.74,0 -8.227,3.7184 -8.227,10.0383 0,6.3073 3.436,10.0891 8.201,10.0891 z m 0.844,-3.2361 c -3.411,0 -5.187,-2.9823 -5.187,-6.8911 0,-3.8706 1.737,-6.7768 5.187,-6.7768 3.334,0 5.123,2.7031 5.123,6.7768 0,4.0991 -1.827,6.8911 -5.123,6.8911 z"
     fill="white"
     id="path12"
     style="fill:#ffffff;fill-opacity:1" />
  <path
     d="m 143.284,8.84964 c 0.421,0 0.766,-0.34265 0.766,-0.76145 0,-0.41879 -0.345,-0.76144 -0.766,-0.76144 -0.422,0 -0.767,0.34265 -0.767,0.76144 0,0.4188 0.345,0.76145 0.767,0.76145 z"
     fill="white"
     id="path22"
     style="fill:#ffffff;fill-opacity:1" />
  <path
     d="m 140.37421,2.3132498 h 1.022 c -0.047,-1.307138 -1.261,-2.28432003 -2.947,-2.28432003 -1.67,0 -2.981,0.964492 -2.981,2.41969003 0,1.16754 0.851,1.8613 2.214,2.25048 l 1.073,0.30458 c 0.92,0.25381 1.738,0.57531 1.738,1.43827 0,0.94758 -0.92,1.57365 -2.129,1.57365 -1.04,0 -1.959,-0.45687 -2.045,-1.43828 h -1.09 c 0.102,1.42136 1.261,2.38585 3.135,2.38585 2.01,0 3.151,-1.09986 3.151,-2.5043 0,-1.6244 -1.55,-2.14895 -2.453,-2.38584 l -0.886,-0.2369 c -0.647,-0.1692 -1.686,-0.50762 -1.686,-1.43827 0,-0.82913 0.766,-1.43828003 1.925,-1.43828003 1.056,0 1.856,0.49917003 1.959,1.35367003 z"
     fill="white"
     id="path24"
     style="fill:#ffffff;fill-opacity:1;stroke:none;stroke-opacity:1" />
  <path
     d="m 154.233,8.84964 c 0.422,0 0.767,-0.34265 0.767,-0.76145 0,-0.41879 -0.345,-0.76144 -0.767,-0.76144 -0.421,0 -0.766,0.34265 -0.766,0.76144 0,0.4188 0.345,0.76145 0.766,0.76145 z"
     fill="white"
     id="path26"
     style="fill:#ffffff;fill-opacity:1" />
  <text
     xml:space="preserve"
     style="font-style:normal;font-weight:normal;font-size:11.0116px;line-height:1.25;font-family:sans-serif;fill:#ffffff;fill-opacity:1;stroke:none;stroke-width:0.275281"
     x="153.97018"
     y="8.1964998"
     id="text10616"
     transform="scale(0.9466407,1.056367)"><tspan
       sodipodi:role="line"
       id="tspan10614"
       x="153.97018"
       y="8.1964998"
       style="fill:#ffffff;fill-opacity:1;stroke-width:0.275281">C</tspan></text>
</svg>
